<svg version="1.1" id="Layer_1" xmlns="http://www.w3.org/2000/svg" xmlns:xlink="http://www.w3.org/1999/xlink" x="0px" y="0px"
	 width="100%" viewBox="0 0 1024 672" enable-background="new 0 0 1024 672" xml:space="preserve">
<path fill="#409EFF" opacity="1.000000" stroke="none"
	d="
M550.814880,289.836121 
	C573.224731,260.579102 586.454346,227.964417 590.562317,191.697739 
	C592.200623,177.234314 592.005798,162.799622 589.330383,148.428726 
	C588.346558,143.144638 588.636230,137.844208 589.836548,132.556046 
	C592.308228,121.667183 605.265625,114.790848 614.720703,121.399879 
	C616.765137,122.828918 618.607483,122.546371 620.767212,121.522766 
	C644.927856,110.072067 670.567444,104.011787 696.954529,100.581070 
	C720.170898,97.562584 743.448059,96.915283 766.658264,99.757362 
	C819.874084,106.273628 868.140808,124.186752 907.100952,162.651123 
	C914.224182,169.683685 920.865723,177.166504 926.030579,185.814377 
	C927.221558,187.808609 928.249756,189.924011 929.126038,192.076019 
	C930.134338,194.552277 931.152222,197.184937 928.928223,199.570755 
	C926.752808,201.904556 924.190735,201.254868 921.512085,200.480515 
	C909.282104,196.944977 896.933655,196.677094 884.496765,199.351212 
	C862.278503,204.128448 846.763062,217.503845 836.094482,237.074921 
	C825.708801,256.127228 822.002930,276.397552 825.134460,297.895844 
	C825.278137,298.881989 825.302368,299.887848 825.344299,300.886139 
	C825.616577,307.369232 823.029114,309.455719 816.768555,307.506378 
	C801.390869,302.718231 785.925537,302.509033 770.510803,306.925171 
	C746.946228,313.676178 730.214050,328.916931 718.250488,349.880524 
	C710.562927,363.351410 706.101562,377.934235 703.403137,393.107758 
	C702.850525,396.215485 702.037842,399.088501 698.798218,400.218567 
	C695.799744,401.264465 693.865112,399.169891 691.840515,397.354736 
	C670.029907,377.800751 636.261597,373.411407 609.296448,386.794373 
	C614.343018,389.534912 619.356018,391.933136 624.038025,394.860718 
	C637.999573,403.590607 649.085693,415.158081 657.323059,429.443237 
	C658.059875,430.721008 658.827942,432.255646 660.006531,432.962616 
	C678.062988,443.793854 691.794067,459.787079 707.886047,472.954987 
	C722.031616,484.530090 737.349426,493.656219 755.771301,496.269592 
	C780.659363,499.800201 802.646301,494.327454 818.664368,473.666290 
	C828.349487,461.173828 830.924744,446.366089 830.083252,430.735748 
	C829.372986,417.541901 825.863647,404.813507 824.339050,391.763733 
	C820.248047,356.747162 831.187195,327.813995 858.969910,305.687012 
	C864.373840,301.383179 870.612244,298.599152 877.405029,297.139130 
	C881.779785,296.198822 885.846313,296.811798 888.794556,300.344269 
	C891.888977,304.051849 891.152283,308.158539 888.830383,311.982544 
	C887.107361,314.820282 885.294495,317.651520 883.167175,320.188354 
	C862.866638,344.396149 860.215332,370.965454 872.376709,399.556366 
	C878.632568,414.263550 885.141296,428.895996 888.205444,444.701172 
	C894.759277,478.506744 886.732727,509.097351 867.222656,536.949768 
	C839.382629,576.693970 800.077454,597.370667 753.108826,605.397461 
	C714.378662,612.016357 677.666321,604.583801 641.843689,590.233093 
	C635.517944,587.698975 635.513489,587.734619 632.705933,593.789490 
	C626.946838,606.209595 620.746948,618.353943 611.643799,628.774719 
	C604.798340,636.611023 599.520996,638.272461 589.670227,634.940613 
	C587.435852,634.184875 586.294983,635.093445 584.828003,636.268372 
	C576.181152,643.193787 567.821716,642.720215 559.950623,634.898743 
	C558.659729,633.616028 557.604736,632.346008 555.377747,632.407837 
	C546.838989,632.645142 541.462524,628.742249 538.900757,620.283875 
	C535.798889,610.042114 537.243835,600.224121 542.353577,590.886658 
	C545.826599,584.540222 550.832153,579.415955 556.236389,573.923401 
	C551.143250,572.145874 546.697937,574.055054 542.325989,574.635498 
	C528.197571,576.511108 514.108765,576.453674 500.026489,574.544739 
	C496.291138,574.038330 493.960052,574.516785 492.257263,578.524963 
	C488.515564,587.332153 481.746704,593.838562 474.282288,599.590881 
	C464.386475,607.216919 454.432800,614.768127 444.477203,622.316162 
	C441.149597,624.839050 437.580322,626.973450 433.724884,628.619385 
	C430.761475,629.884583 427.346771,631.346375 424.548767,630.121460 
	C417.599457,627.079163 410.839722,628.790405 403.811768,629.063660 
	C392.572601,629.500610 378.344879,613.793701 378.621613,602.588562 
	C378.870361,592.516785 383.853821,584.832703 391.345184,578.700745 
	C395.022003,575.691101 399.264130,573.372131 403.263336,570.732056 
	C402.268402,568.132507 400.066162,567.035706 398.396240,565.497253 
	C384.518402,552.711670 380.406921,536.826416 383.551178,518.700623 
	C384.069000,515.715698 383.869568,513.349060 381.924652,510.840515 
	C376.908722,504.370972 372.720062,497.350647 369.611786,489.758057 
	C368.369080,486.722504 366.835358,485.495789 363.238495,486.030670 
	C356.239990,487.071472 349.270050,485.860748 342.541687,483.856781 
	C339.373596,482.913116 337.090637,483.372192 335.027039,485.885803 
	C332.173615,489.361450 329.255676,492.786255 326.296082,496.172241 
	C320.849152,502.403931 315.573853,502.830292 309.509827,497.276917 
	C307.434113,495.375977 305.965179,494.581116 303.074463,496.092072 
	C297.186432,499.169739 291.591583,497.921783 287.350250,492.897339 
	C285.555725,490.771484 283.705139,489.289551 280.981110,488.523560 
	C275.477936,486.975952 271.891235,483.170166 269.803650,477.919403 
	C265.694489,467.583893 265.726471,457.272705 271.217896,447.542145 
	C282.570770,427.425262 298.751923,414.826263 323.089386,415.638184 
	C326.085907,415.738159 329.123810,415.367737 332.081573,415.722900 
	C342.511932,416.975616 350.445282,412.572968 357.329559,405.279480 
	C359.349091,403.139984 360.685974,400.926544 361.229248,397.987885 
	C362.585815,390.650055 364.216766,383.362946 365.856934,375.481995 
	C338.033569,381.778198 313.444275,380.204376 300.720551,348.922180 
	C298.496063,348.781586 297.188782,350.995544 295.572418,352.492371 
	C292.722900,355.131042 289.520111,355.870117 285.874939,354.869598 
	C263.803772,348.811554 236.570206,326.996857 238.782639,292.576721 
	C238.836044,291.745728 238.741791,290.854736 239.010361,290.095734 
	C242.394104,280.532593 239.312073,272.029877 235.431793,263.294220 
	C222.301331,233.733612 206.813248,205.686371 184.617661,181.834808 
	C172.605164,168.926071 159.052643,157.989212 142.756393,150.788971 
	C137.140366,148.307587 135.629639,144.812729 137.049377,137.574326 
	C139.224228,126.486122 143.407837,116.142708 149.776260,106.848557 
	C166.696991,82.154167 188.980469,63.953594 216.729904,52.570248 
	C218.564560,51.817635 220.510971,51.133514 222.461975,50.908951 
	C227.226410,50.360554 229.537659,53.213535 228.404984,57.895611 
	C227.350632,62.253994 225.966888,66.571953 225.368713,70.994354 
	C223.225571,86.838913 230.765823,98.642601 241.925110,108.641006 
	C255.191116,120.526962 271.108765,127.720970 287.631561,133.736130 
	C291.385468,135.102737 295.289886,136.089340 298.962769,137.636169 
	C303.166504,139.406586 304.859222,138.129410 305.698914,133.777557 
	C308.314575,120.221397 313.397461,107.591293 321.204071,96.171928 
	C332.779358,79.239914 346.015320,63.945400 364.378571,53.942230 
	C368.644409,51.618481 373.165741,49.843719 378.063263,49.531231 
	C386.574738,48.988167 391.480743,54.794460 389.844360,63.217991 
	C388.185333,71.758194 384.559509,79.685760 382.183319,88.002052 
	C381.733032,89.577950 380.889191,91.059586 381.258759,93.547890 
	C386.575592,89.672874 391.884247,86.384087 398.123077,85.117004 
	C406.847198,83.345184 415.499207,88.770462 415.925537,96.679871 
	C416.088928,99.711525 415.110748,102.804703 414.651672,105.876923 
	C429.582550,107.177101 430.326721,107.512520 434.923828,115.102364 
	C437.131470,114.111580 438.240601,112.017448 439.629242,110.268143 
	C453.996033,92.169754 469.314880,75.073463 489.847168,63.654987 
	C500.666351,57.638184 511.761139,52.281673 524.640137,52.631752 
	C533.462158,52.871555 538.491577,58.828045 536.947021,67.493874 
	C535.442566,75.934387 531.954773,83.710495 528.435242,91.439102 
	C521.601746,106.444786 514.605896,121.376503 507.767090,136.379761 
	C506.838470,138.416946 505.290131,140.338715 505.619293,142.848068 
	C507.437958,143.883148 508.502930,142.436844 509.669586,141.719742 
	C516.212097,137.698303 522.241272,132.964966 528.242493,128.192459 
	C534.252136,123.413246 540.333984,118.718758 547.866699,116.510887 
	C558.441589,113.411346 565.413147,118.532585 565.377625,129.332001 
	C565.334961,142.307831 560.471008,153.650925 553.492859,164.267761 
	C552.056885,166.452484 550.561707,168.598251 549.145752,170.685379 
	C550.285034,172.117706 551.543701,171.611618 552.631409,171.649246 
	C562.850586,172.002914 568.493408,179.813049 565.716675,189.828751 
	C563.032654,199.510666 555.775818,204.983856 547.388611,209.145966 
	C536.601501,214.499008 525.165283,215.765518 513.338074,213.502182 
	C512.685486,213.377304 512.017517,213.307159 511.353668,213.275528 
	C510.874512,213.252701 510.390289,213.336182 509.382996,213.411575 
	C510.779480,220.119095 512.429871,226.650406 513.466431,233.277740 
	C517.055359,256.223053 517.360962,278.773834 504.320221,299.450134 
	C503.969391,300.006409 503.519318,300.649261 503.516449,301.253632 
	C503.467163,311.660767 503.480988,322.068237 503.480988,332.790802 
	C521.675842,321.600494 537.511780,307.408264 550.814880,289.836121 
M857.024170,391.183044 
	C851.293152,371.763763 851.604126,352.693451 860.941833,334.386597 
	C863.349182,329.666809 863.747070,325.530243 860.673462,321.009491 
	C859.999573,321.485382 859.295166,321.916809 858.670227,322.442535 
	C858.035522,322.976562 857.451294,323.578369 856.892273,324.193512 
	C838.614746,344.306915 832.181641,367.764008 836.835266,394.463440 
	C839.884949,411.960571 843.797241,429.327148 841.439270,447.396759 
	C838.508301,469.857239 828.111389,487.487915 808.539551,498.851501 
	C781.720642,514.422852 754.176147,513.187256 726.665649,500.374298 
	C709.944824,492.586639 696.495850,480.337402 683.131348,467.990753 
	C677.947021,463.201263 672.595032,458.593323 666.457214,453.136108 
	C667.086731,466.423889 669.423462,478.460846 663.403320,490.416748 
	C660.892517,486.437897 660.969421,486.433044 660.703979,482.226196 
	C659.428040,462.001862 653.775757,443.200226 641.415344,426.932800 
	C629.565674,411.337646 614.680359,398.626587 594.748840,397.262665 
	C584.238831,396.543457 574.920105,393.248199 565.037903,391.268524 
	C563.022827,390.864868 560.755981,390.777283 559.019775,388.319855 
	C564.343201,385.689117 569.428711,387.208038 574.199463,388.400574 
	C578.172424,389.393646 580.880371,388.546906 584.207581,386.319580 
	C617.069885,364.321442 651.268982,359.139496 687.231812,378.815491 
	C691.850342,381.342377 693.244873,380.762299 694.667603,375.668182 
	C697.590820,365.202454 701.399902,355.102142 706.623352,345.555023 
	C719.066284,322.812347 736.611145,305.818176 761.320007,296.825592 
	C775.058716,291.825531 789.280457,291.134674 803.685791,291.727997 
	C809.490662,291.967072 811.470459,289.994720 811.709595,284.168335 
	C812.237915,271.295990 814.054321,258.649658 818.678101,246.548508 
	C831.996094,211.692993 855.260193,189.058563 893.973938,185.535706 
	C898.827332,185.094040 903.695557,184.814301 908.605103,184.456039 
	C908.276672,182.129486 907.034912,180.959183 905.985962,179.692230 
	C897.647278,169.620300 888.110535,160.785660 877.458801,153.261551 
	C836.385986,124.248955 790.084778,111.555550 740.349609,110.456497 
	C712.764404,109.846909 685.527405,113.361061 658.849609,120.494530 
	C645.822510,123.977890 632.712646,127.611366 621.496277,135.501831 
	C617.740417,138.143967 615.446655,138.869522 612.788025,134.484390 
	C611.405090,132.203308 609.011475,130.273651 606.039612,131.409409 
	C603.176453,132.503616 601.795410,135.270798 601.501648,138.137375 
	C601.146973,141.598755 600.878540,145.223724 601.505066,148.605164 
	C604.893005,166.891418 603.825745,185.179672 600.998779,203.296387 
	C594.363342,245.819992 575.643555,282.583099 546.560120,314.185425 
	C535.521484,326.180145 522.577637,335.781006 508.968475,344.590820 
	C506.575867,346.139679 503.592804,347.300110 505.030151,351.513489 
	C506.329498,355.322388 504.663940,356.642639 500.651703,355.543213 
	C494.512665,353.860992 492.126648,348.978973 490.765411,343.443604 
	C488.988129,336.216339 489.770081,328.864685 490.101501,321.549011 
	C490.168488,320.071106 490.673340,318.371643 488.833405,317.665192 
	C487.302551,317.077393 486.438660,318.479645 485.466827,319.322662 
	C480.673981,323.480316 475.856201,327.833588 470.143036,330.454651 
	C462.604218,333.913239 459.239380,338.992279 457.959900,347.314453 
	C454.597137,369.187225 450.041779,390.899658 451.385345,413.202393 
	C452.123901,425.462280 455.338928,437.126434 461.134705,448.019501 
	C461.935425,449.524414 462.751251,451.272736 464.859741,450.253204 
	C466.845917,449.292786 465.604187,447.683075 465.213806,446.326935 
	C462.611633,437.287292 461.153503,428.146851 462.656067,418.724152 
	C462.964630,416.789093 462.865570,414.640503 465.638245,414.244202 
	C467.723999,416.077728 467.781372,418.682770 468.269318,421.062317 
	C469.671173,427.899139 470.722992,434.799225 472.834869,441.493591 
	C473.913239,444.912018 475.309113,447.193207 479.392456,446.695496 
	C481.200989,446.475098 483.290863,446.653809 483.858673,448.934845 
	C484.430145,451.230499 482.537842,452.206818 480.950226,453.042328 
	C475.790588,455.757751 470.532684,458.286438 465.371704,460.999390 
	C447.974701,470.144379 434.184082,482.639801 428.169434,502.046539 
	C426.573181,507.196991 426.543823,512.564331 428.528748,517.724426 
	C429.128540,519.283813 430.089539,520.857300 432.123138,520.648315 
	C434.296783,520.424988 434.491577,518.595825 434.655884,516.913818 
	C434.984070,513.554443 435.892029,510.332611 437.491791,507.405273 
	C438.799774,505.011871 440.143219,501.251923 443.377380,502.335602 
	C447.284149,503.644653 444.733307,507.279480 444.118500,509.703552 
	C442.397156,516.489868 443.841095,522.575317 447.486023,528.264893 
	C448.885406,530.449280 450.991272,532.038635 453.775909,531.513306 
	C456.604828,530.979675 457.611633,528.507874 458.386566,526.100037 
	C458.735413,525.016113 458.615204,523.789246 458.789642,522.639648 
	C459.464996,518.188721 460.104614,513.697205 462.685791,509.856384 
	C463.773926,508.237305 465.106659,506.189178 467.458801,507.272614 
	C469.613983,508.265350 468.856354,510.390656 468.384735,512.152893 
	C467.378601,515.912170 466.808105,519.643616 468.361389,523.413757 
	C469.385956,525.900635 470.222290,528.774597 473.534882,528.695740 
	C476.566162,528.623596 477.588287,525.868103 478.325714,523.554016 
	C482.562561,510.257904 490.583771,501.101685 503.877319,495.496796 
	C521.277771,488.160248 529.100342,473.958984 527.564941,455.536346 
	C526.670166,444.799133 523.153809,434.742523 518.064087,425.233429 
	C517.112854,423.456299 515.348328,421.725006 516.750366,419.155304 
	C519.110107,418.773254 520.378784,420.504303 521.713013,421.854431 
	C526.844421,427.046875 530.203918,433.354034 532.741028,440.110931 
	C539.053467,456.922607 539.227783,473.320465 528.977539,488.835388 
	C524.374329,495.802887 517.895386,500.706329 510.728577,504.830597 
	C506.364319,507.342041 506.322144,508.779175 510.695160,511.333038 
	C514.422119,513.509583 518.338684,515.419128 522.322510,517.085449 
	C529.492676,520.084595 530.373108,519.613586 531.780823,511.824524 
	C534.437988,497.122437 538.492676,482.945129 546.947815,470.402588 
	C554.050171,459.866821 562.645569,450.928741 574.772888,446.179230 
	C576.838562,445.370209 579.216797,443.678131 581.473572,445.718597 
	C581.583862,447.888885 580.083008,448.601532 579.007568,449.556854 
	C574.528259,453.535980 569.566833,456.988464 565.634705,461.563904 
	C553.039551,476.219696 545.092590,493.158783 542.681946,512.265137 
	C540.626770,528.553101 543.342834,544.080444 555.864380,556.044312 
	C568.108826,567.743469 583.200806,570.431030 599.500671,568.177673 
	C601.416138,567.912842 603.936401,566.812317 604.767273,569.269287 
	C605.640137,571.850159 602.810547,572.416809 601.139465,573.166687 
	C594.014343,576.364136 586.524170,577.593079 578.739624,576.707092 
	C576.751099,576.480713 574.807739,576.074219 572.839355,576.866333 
	C562.641785,580.969849 548.246826,596.483826 549.289062,610.735168 
	C549.457275,613.034729 548.963440,615.742004 552.073792,616.390747 
	C555.610779,617.128357 555.657593,613.851013 556.225037,611.915710 
	C557.748474,606.720093 559.784241,601.848816 563.502747,597.867004 
	C565.340332,595.899353 567.263306,592.483337 570.381470,594.535522 
	C574.025269,596.933594 570.402649,599.455383 569.307007,601.720764 
	C565.877747,608.811096 563.638428,615.977478 566.856934,623.784424 
	C567.947083,626.428894 569.684570,628.445435 572.684021,628.561768 
	C575.570923,628.673767 577.724182,627.111755 579.255249,624.695923 
	C581.014587,621.919983 581.197510,618.712830 581.679749,615.605713 
	C582.615540,609.576416 584.542175,603.959229 588.448914,599.190002 
	C589.733521,597.621765 591.405945,596.113708 593.573975,597.633667 
	C595.514648,598.994324 594.762695,600.908569 593.907471,602.581726 
	C591.893311,606.522339 590.812317,610.630005 591.137512,615.095154 
	C591.383484,618.474548 591.390503,621.884644 595.450562,623.239685 
	C599.376099,624.549744 601.292297,621.780518 603.299561,619.361755 
	C613.404602,607.185120 620.344788,593.161072 626.725220,578.832520 
	C630.915649,569.422302 632.774109,559.815308 628.647095,549.804626 
	C627.378418,546.727295 629.444275,544.873657 631.422546,542.956482 
	C640.312805,534.340820 646.675049,524.111816 650.740967,512.427307 
	C651.470886,510.329712 651.661804,506.968323 654.578674,507.483337 
	C657.281616,507.960571 656.500671,511.310455 656.853394,513.498596 
	C657.005066,514.439331 656.618958,515.467651 656.472595,516.455505 
	C655.580322,522.477600 653.202759,528.009216 650.328247,533.258972 
	C648.244202,537.065186 649.110413,539.172729 652.656982,541.322388 
	C680.836426,558.402588 711.251038,568.268188 744.236572,569.613892 
	C780.443115,571.090942 812.870544,560.474854 841.569824,538.400696 
	C857.705688,525.989624 869.936646,510.891266 874.999451,490.660980 
	C880.710205,467.841217 877.961914,445.740662 869.801086,424.059845 
	C865.754578,413.309540 861.481262,402.644653 857.024170,391.183044 
M301.732269,202.257172 
	C302.669769,201.310059 303.544861,200.289932 304.554413,199.427109 
	C314.953735,190.539352 328.050476,193.879913 332.618073,206.757843 
	C334.920166,213.248383 335.575836,220.017685 334.785156,226.934784 
	C333.973450,234.035751 332.110809,240.926926 330.607605,247.945496 
	C338.515686,251.783600 348.499969,251.633057 353.334412,260.743073 
	C350.799347,262.429230 348.933350,261.240692 347.098297,260.765594 
	C327.167053,255.605316 306.909851,253.013351 286.328674,253.356750 
	C273.334747,253.573547 262.788300,259.029633 256.818359,270.693970 
	C243.586197,296.547607 251.804825,328.689636 284.284302,340.894592 
	C287.258423,342.012207 289.291473,341.006195 291.491791,339.144379 
	C301.152130,330.970062 312.300537,326.293213 324.866699,324.500702 
	C335.271545,323.016541 345.801086,323.278748 356.176361,321.695312 
	C371.109131,319.416412 384.948608,314.644287 396.180389,304.013702 
	C397.944611,302.343903 399.805511,300.651917 400.165375,298.054230 
	C398.105438,296.706177 394.655029,297.047333 395.063904,293.831116 
	C395.390472,291.262024 398.021698,290.458008 400.218140,289.653107 
	C406.568115,287.326263 415.334564,289.898071 419.178680,295.157440 
	C420.102722,296.421692 420.862549,297.764252 420.090424,299.301117 
	C419.323853,300.826965 417.685394,300.750610 416.581329,300.154327 
	C411.370575,297.339844 410.291656,300.657318 408.769928,304.655792 
	C399.317963,329.491364 382.412933,346.946503 356.677917,354.582794 
	C338.727661,359.909149 323.823578,354.081543 316.031281,339.946014 
	C312.531677,340.199951 311.183075,342.227020 311.293610,345.585358 
	C311.434418,349.863586 313.379150,353.341003 316.432892,356.066986 
	C325.226959,363.917206 335.701477,367.003235 347.336670,366.143005 
	C360.856812,365.143433 372.628815,359.317047 383.903168,352.337494 
	C393.881866,346.160034 404.130676,340.496185 415.936768,338.972015 
	C429.317169,337.244598 441.909668,333.058746 454.048950,327.519653 
	C473.189972,318.785767 489.357880,306.665619 497.672150,286.386169 
	C504.053223,270.821991 504.573212,254.569138 502.253876,238.243011 
	C500.309998,224.559631 497.279785,211.009689 491.083923,198.518509 
	C487.536255,191.366257 487.655823,190.541702 495.305725,188.565735 
	C515.228638,183.419693 532.587769,174.207947 544.531738,156.734467 
	C549.002380,150.194138 552.228760,143.075333 552.705505,135.039581 
	C552.948242,130.947937 550.656433,129.549484 547.032410,131.330826 
	C545.548279,132.060333 544.109253,132.970078 542.833252,134.020721 
	C530.692627,144.016998 517.382385,152.221390 503.682648,159.857941 
	C497.368713,163.377502 491.943146,168.012878 487.266998,173.558731 
	C485.586823,175.551361 485.302094,178.600662 481.893890,180.105576 
	C467.895203,148.206390 440.303131,137.444443 407.751862,133.961426 
	C412.481781,128.507584 419.457214,126.458458 422.804993,120.097404 
	C419.224579,118.286049 416.310699,119.015900 413.470825,119.821045 
	C405.496155,122.081978 399.214539,126.857803 393.991180,133.171387 
	C392.663635,134.775955 391.016205,136.234604 388.844452,135.087082 
	C386.489624,133.842834 386.599213,131.591904 387.441101,129.397202 
	C388.036011,127.846367 388.668579,126.292587 389.466034,124.839882 
	C392.672485,118.998810 396.015656,113.232086 399.171295,107.364212 
	C400.628784,104.653976 401.950104,101.818825 401.835632,98.497963 
	C398.353973,98.288506 396.008514,100.034294 393.597870,101.414444 
	C383.289703,107.316147 377.142975,116.723137 372.226562,127.127747 
	C370.157959,131.505539 368.446381,136.005630 367.576477,140.796860 
	C367.209839,142.816254 366.674072,144.830750 364.198364,145.174362 
	C361.627167,145.531189 360.765961,143.677353 360.034210,141.710556 
	C359.809906,141.107712 359.445312,140.557098 358.915985,139.544571 
	C343.097382,142.469833 328.668427,148.406815 315.780853,158.040146 
	C306.457367,165.009308 299.557678,173.787582 295.929352,184.946899 
	C292.991913,193.981201 291.488647,203.175446 292.750702,213.395660 
	C296.896179,210.188583 298.285187,205.845001 301.732269,202.257172 
M264.369385,247.747620 
	C268.521545,245.631378 272.655029,243.477448 276.831818,241.410980 
	C280.106384,239.790909 281.989868,237.448166 281.877594,233.577454 
	C281.655579,225.921371 281.905029,218.242004 281.434021,210.604645 
	C280.174316,190.178329 285.552277,172.108887 299.577850,156.883728 
	C300.777679,155.581253 302.488708,154.600952 302.965637,151.960907 
	C297.268890,150.001434 291.475861,148.121017 285.762756,146.023102 
	C267.078979,139.162277 249.056656,131.027557 233.891144,117.742416 
	C222.856339,108.075813 214.398636,96.744812 212.203064,81.748650 
	C211.658386,78.028343 211.640823,74.230858 211.379059,70.441315 
	C210.594879,70.441315 210.051193,70.296318 209.642303,70.469521 
	C208.574570,70.921822 207.549301,71.483963 206.536072,72.053825 
	C193.504379,79.383156 182.128983,88.831398 171.803635,99.555748 
	C162.204239,109.526062 154.751251,120.778168 151.167450,134.402466 
	C150.143646,138.294510 150.745590,140.480820 154.425629,142.418381 
	C171.940903,151.640244 186.118332,164.948639 198.933334,179.776764 
	C218.498627,202.415558 233.021057,228.155304 244.975967,255.446564 
	C245.872559,257.493317 246.296661,259.934082 249.129898,261.376862 
	C253.495926,256.480896 258.040283,251.623871 264.369385,247.747620 
M374.836823,388.447601 
	C372.150604,399.131531 371.682281,410.158722 369.874908,420.935760 
	C368.146606,431.241516 373.270508,436.204803 380.711639,440.478516 
	C383.569733,442.120026 386.732239,443.462158 389.926392,444.250122 
	C409.291382,449.027374 427.153442,443.958282 444.451691,435.544708 
	C446.516998,434.540192 446.572296,433.028198 446.061981,430.962280 
	C443.041901,418.735962 441.932220,406.371887 443.579010,393.809204 
	C443.998169,390.611481 443.944946,387.351868 444.135620,383.591980 
	C421.524902,395.084351 399.484039,396.651031 377.903473,382.941986 
	C375.900208,384.141998 375.470947,385.926270 374.836823,388.447601 
M405.831329,582.329285 
	C401.432587,585.425354 396.260010,587.794922 393.707489,594.702393 
	C398.685822,592.785645 400.972656,589.310364 404.707733,588.315857 
	C406.485931,587.842346 408.445892,586.872070 409.662476,588.844604 
	C410.799377,590.687988 408.977539,591.911438 407.850281,593.017029 
	C403.133789,597.642761 400.589905,603.310242 399.658905,609.753296 
	C399.260620,612.509399 399.423248,615.450317 402.434387,616.516418 
	C405.686157,617.667664 408.762970,616.836731 410.509979,613.456482 
	C411.654419,611.242065 412.603363,608.926880 413.649109,606.661072 
	C416.156403,601.228333 419.732086,596.723328 425.065613,593.825317 
	C426.671082,592.952942 428.578766,591.971680 430.092957,593.729126 
	C431.875946,595.798462 429.768066,597.051758 428.583435,598.269287 
	C425.383331,601.558350 422.922333,605.281799 421.761627,609.730225 
	C421.086823,612.316284 420.630005,615.033752 422.908569,617.212402 
	C425.324219,619.522095 427.856628,618.524048 430.293762,617.281067 
	C432.659912,616.074280 435.130707,614.958313 437.238556,613.379333 
	C445.898834,606.891846 454.482605,600.299683 463.006500,593.633545 
	C468.641479,589.226624 474.358887,584.886292 478.368134,578.761353 
	C482.087738,573.078979 481.643585,571.641968 474.996490,569.964722 
	C447.569550,563.044434 422.835693,550.971436 401.671051,531.966003 
	C400.277283,530.714478 398.881500,528.594177 396.570648,529.884338 
	C394.425873,531.081909 395.034393,533.361877 395.170624,535.321228 
	C396.119324,548.961731 407.426788,562.370056 421.618896,566.809204 
	C426.698364,568.398010 431.763672,570.044800 436.770172,571.846558 
	C438.290619,572.393738 440.005737,573.423462 439.609680,575.455872 
	C439.176270,577.680054 437.155365,577.313843 435.538849,577.305481 
	C433.207458,577.293396 430.868866,577.258789 428.547150,577.066650 
	C420.670380,576.414917 413.304962,577.945312 405.831329,582.329285 
M313.359039,427.681671 
	C307.857971,429.075500 302.418091,430.638458 297.677673,433.925690 
	C287.904419,440.702972 280.555084,449.234009 278.620026,461.388733 
	C278.076691,464.801758 277.422424,468.575806 281.098938,471.370270 
	C283.180817,469.136353 283.699432,466.476135 284.689301,464.075470 
	C286.172668,460.478058 288.274780,457.312225 291.104675,454.671906 
	C292.439117,453.426819 293.985779,452.146851 295.941772,453.639435 
	C297.758087,455.025360 296.758850,456.607269 296.092896,458.119110 
	C295.489044,459.489899 294.839111,460.840363 294.223633,462.206116 
	C291.734680,467.728821 291.838806,473.545593 292.433899,479.373322 
	C292.664093,481.627625 293.795410,483.594116 296.170227,484.206604 
	C298.473206,484.800568 300.066681,483.163086 301.144409,481.575653 
	C302.621063,479.400696 303.667938,476.917664 304.768616,474.507111 
	C306.787140,470.086609 309.026794,465.804016 312.765137,462.580780 
	C314.326599,461.234467 316.157196,459.153809 318.382080,461.082947 
	C320.325165,462.767883 318.881439,464.765656 317.875763,466.476990 
	C315.380676,470.722931 313.763947,475.223358 314.005432,480.211395 
	C314.117676,482.529755 314.148895,485.238037 316.654327,486.263336 
	C319.218994,487.312897 320.484436,484.803711 321.855164,483.290680 
	C328.117767,476.378082 334.504578,469.588745 341.364227,463.265259 
	C342.918243,461.832733 344.695892,460.106689 347.062988,461.755066 
	C349.081543,463.160706 348.808167,465.310852 348.027893,467.191406 
	C346.065582,471.920868 348.714050,473.263489 352.605743,473.589844 
	C354.578003,473.755219 356.610352,473.641418 358.574280,473.363037 
	C361.260254,472.982361 362.789215,471.509094 362.215057,468.533508 
	C359.686615,455.430023 358.303375,442.234772 358.576050,428.858673 
	C358.662079,424.638184 356.368347,423.435760 352.238312,425.101013 
	C348.966095,426.420441 345.634827,427.143341 342.102234,427.470856 
	C332.794159,428.333893 323.503815,426.273102 313.359039,427.681671 
M409.230621,452.154846 
	C395.376617,453.008270 382.580688,449.689331 370.664124,441.382477 
	C370.391327,443.137451 370.139313,443.916870 370.170013,444.685028 
	C370.853851,461.811249 375.642212,477.755280 384.028717,492.662201 
	C384.878723,494.173065 386.121582,495.218781 387.547119,496.121552 
	C394.096344,500.268982 401.179901,503.052521 408.794678,504.494812 
	C413.262817,505.341156 416.102112,504.417236 417.664642,499.302979 
	C422.062592,484.907928 430.433228,473.023346 442.368713,463.784058 
	C446.533630,460.560028 450.940216,457.648254 455.287170,454.557831 
	C453.525787,450.814240 451.739716,447.431274 450.329773,443.898224 
	C449.073120,440.749207 447.567108,439.853058 444.316803,441.580322 
	C433.623901,447.262695 422.210388,450.756500 409.230621,452.154846 
M428.181213,383.670990 
	C429.433838,383.224823 430.679291,382.757111 431.940308,382.336029 
	C441.068054,379.287750 447.813293,374.405884 447.642609,363.460876 
	C447.591705,360.198090 448.734009,356.926697 449.220062,353.643066 
	C449.859924,349.319916 451.528534,345.076599 450.551971,340.179962 
	C442.739502,342.236511 435.331818,345.137238 427.693024,346.006287 
	C409.909393,348.029419 396.048737,357.315338 382.759857,368.123840 
	C379.783905,370.544281 379.810577,373.103119 381.934113,375.910095 
	C384.715881,379.587036 388.306244,382.191620 392.690643,383.671631 
	C404.241089,387.570679 415.815887,387.791534 428.181213,383.670990 
M668.081787,568.398621 
	C665.539978,573.372070 662.178833,577.825745 658.471802,582.365051 
	C659.910278,583.125488 660.735779,583.679260 661.640991,584.022888 
	C676.323853,589.596375 691.547058,592.988037 707.128174,594.553467 
	C711.691711,595.012024 716.687195,596.786743 720.960449,592.871643 
	C724.867615,589.291931 727.709045,585.177002 729.121521,580.025696 
	C729.895691,577.202332 729.473267,575.767517 726.196838,575.242126 
	C710.407715,572.710510 695.078064,568.410400 680.076172,562.881409 
	C671.798706,559.830627 671.765137,559.921753 668.081787,568.398621 
M533.424561,540.816956 
	C532.885986,538.725037 531.940674,536.642578 531.892090,534.539307 
	C531.785645,529.932190 529.472473,527.576904 525.205627,526.603516 
	C523.755859,526.272766 522.320862,525.749695 520.976685,525.109558 
	C518.175049,523.775330 516.527893,524.595398 514.891235,527.239807 
	C506.939209,540.088684 495.705933,549.179993 481.989838,555.351868 
	C480.604431,555.975281 478.620331,556.024719 478.123810,558.488770 
	C478.402740,558.672913 478.778503,559.081421 479.228729,559.195129 
	C499.088318,564.211487 519.137451,566.343811 539.513611,562.935242 
	C543.498352,562.268677 543.390686,559.828369 541.520691,557.117493 
	C538.188904,552.287415 535.490723,547.159119 533.424561,540.816956 
M490.384277,521.919495 
	C489.205414,525.024353 488.220612,528.220581 486.810394,531.216492 
	C482.941895,539.434753 476.477203,541.991089 467.977722,538.720581 
	C466.286530,538.069885 465.078278,537.931763 463.420654,539.051208 
	C454.238464,545.252502 448.551147,544.721863 440.404694,537.142700 
	C438.946106,535.785706 437.686066,534.234680 435.370270,534.342957 
	C426.786102,534.744202 420.680450,529.948364 418.827728,522.561829 
	C416.465607,513.144531 411.139801,509.657562 402.345245,509.431763 
	C400.799408,509.392059 398.962799,507.631683 397.775330,509.543396 
	C396.473267,511.639496 398.642700,512.864563 399.787384,514.104553 
	C415.889069,531.547180 435.215759,544.162048 457.457550,552.348999 
	C459.946930,553.265259 462.476257,553.857727 465.259674,553.370178 
	C482.300507,550.385864 495.939026,541.945068 506.254944,528.099670 
	C511.061401,521.648743 510.994781,521.435608 503.944366,517.508118 
	C495.301697,512.693604 495.301697,512.693604 490.384277,521.919495 
M461.787140,107.109055 
	C462.433014,109.237183 464.288605,109.527618 466.074768,109.999748 
	C476.675751,112.801834 485.802765,117.878563 492.268372,127.048485 
	C494.357880,130.011948 496.293213,129.662292 497.809052,126.576553 
	C500.301056,121.503708 502.462067,116.255203 505.186340,111.314362 
	C506.833435,108.327118 506.316376,106.050644 504.543732,103.535797 
	C499.534119,96.428795 493.010223,91.669724 484.321442,90.121498 
	C481.709351,89.656052 478.845428,88.468079 476.562988,90.177917 
	C470.604553,94.641617 464.817657,99.372223 461.787140,107.109055 
M480.171265,124.294502 
	C473.135864,119.109802 465.269958,116.415161 456.511688,116.250587 
	C453.058899,116.185707 450.730682,117.816994 449.522827,120.836136 
	C448.504791,123.380821 452.150208,135.120682 454.469879,136.502426 
	C463.101196,141.643799 470.987396,147.659302 477.748505,155.129044 
	C479.700439,157.285522 481.772003,157.070084 483.738464,154.947357 
	C493.025726,144.922119 492.804565,136.066162 482.996429,126.692284 
	C482.276245,126.004021 481.496460,125.378120 480.171265,124.294502 
M763.080750,591.567993 
	C769.622070,589.701294 776.226135,588.026123 782.685547,585.909424 
	C788.215759,584.097168 791.182312,578.737976 790.543091,572.636597 
	C790.086548,572.558655 789.570557,572.315002 789.138794,572.419434 
	C773.059631,576.309021 756.786438,578.033020 740.248230,576.894104 
	C739.050415,576.811646 737.759155,576.833313 737.370728,578.243408 
	C735.814026,583.896118 732.503052,588.651123 728.473572,594.264221 
	C740.687866,595.994690 751.451477,593.598877 763.080750,591.567993 
M344.051788,92.319939 
	C336.816864,93.919136 327.893433,105.382240 326.734100,114.646072 
	C327.172943,114.787148 327.664062,115.127670 328.078705,115.051537 
	C337.775391,113.271385 347.383514,113.183563 357.268280,114.305748 
	C363.175323,114.976357 361.756531,107.700218 363.693604,104.086716 
	C364.818329,101.988564 366.502930,99.208000 363.491608,96.966370 
	C362.834381,96.477158 362.036255,96.169495 361.285919,95.814339 
	C356.099945,93.359634 350.696350,91.904900 344.051788,92.319939 
M381.969604,331.478088 
	C385.133606,328.279114 388.525482,325.247314 390.608246,320.990417 
	C387.791931,319.735565 386.438629,321.370758 384.911224,322.166412 
	C368.951233,330.480469 352.413330,336.665039 334.043793,336.345642 
	C332.278107,336.314972 330.123566,335.992950 329.526947,338.410950 
	C328.930634,340.827759 329.271637,343.046844 331.699097,344.475647 
	C336.856781,347.511597 342.337677,349.120605 348.368317,348.270966 
	C361.183472,346.465546 371.829315,340.250183 381.969604,331.478088 
M530.643066,202.145355 
	C537.345886,201.120911 543.622253,198.983017 548.795837,194.461411 
	C551.511230,192.088287 555.495605,189.218933 554.145935,185.617493 
	C552.607300,181.511627 547.665894,183.246368 544.253174,183.564621 
	C530.925232,184.807465 519.372253,191.673645 506.963379,195.856979 
	C506.614258,195.974701 506.429230,196.579193 506.179016,196.940369 
	C511.334045,201.634415 519.278625,203.431046 530.643066,202.145355 
M642.412781,556.433899 
	C643.461853,560.916931 643.471863,565.550354 642.063110,569.784424 
	C640.203125,575.374573 642.930725,577.266357 647.429504,578.776367 
	C649.751831,579.555786 651.495728,579.238892 653.444397,577.865173 
	C658.691467,574.166260 662.135315,569.198425 664.196350,563.217041 
	C665.553833,559.277039 665.126465,556.154297 660.552856,554.423889 
	C657.143982,553.134155 654.028992,551.088257 650.677734,549.619812 
	C647.874084,548.391296 644.904785,545.013550 642.118774,546.880615 
	C638.964417,548.994507 642.367188,552.608948 642.412781,556.433899 
M296.291565,236.573868 
	C296.465424,238.804382 294.058075,241.482635 296.285309,243.124634 
	C298.667053,244.880539 302.041351,244.860748 304.927734,244.397964 
	C307.964905,243.910995 306.834961,240.968369 306.944031,239.009247 
	C307.815063,223.363480 312.372498,216.977280 325.611389,213.305603 
	C324.888458,208.719025 322.813690,205.250946 318.107910,203.832458 
	C313.794342,202.532227 310.797180,204.869003 308.015503,207.634460 
	C305.514343,210.121002 303.736542,213.108795 302.231964,216.278259 
	C299.292847,222.469574 297.506073,229.004379 296.291565,236.573868 
M504.102814,92.445610 
	C509.526001,97.488655 511.929626,97.041519 514.976135,90.190300 
	C516.593079,86.553947 518.167725,82.860329 519.298279,79.054947 
	C521.091614,73.018349 518.249878,69.580742 512.109009,70.066490 
	C509.965332,70.236069 507.629211,70.310844 505.762817,71.216148 
	C499.814636,74.101418 493.101624,76.273941 490.729675,83.922066 
	C495.489380,86.239128 499.843140,88.615135 504.102814,92.445610 
M332.310547,135.714279 
	C333.226257,135.317719 334.131653,134.894913 335.059418,134.528870 
	C340.945618,132.206543 346.966400,130.292084 353.124786,128.852676 
	C355.885681,128.207352 356.920288,126.344612 357.139801,123.837524 
	C357.295532,122.059082 355.851837,121.650162 354.529144,121.421982 
	C344.077728,119.618965 333.991821,120.757080 324.472290,125.560463 
	C320.696472,127.465668 317.992981,133.441711 318.858215,137.430069 
	C319.413391,139.988998 320.697296,141.276291 323.491058,139.839890 
	C326.150696,138.472427 328.903900,137.286942 332.310547,135.714279 
M830.991577,553.595886 
	C822.477905,558.805847 813.752197,563.578064 804.392212,567.150940 
	C798.161194,569.529358 797.130310,571.674866 798.254089,579.542725 
	C815.956848,571.040527 831.556091,560.263184 844.632263,546.045166 
	C844.324280,545.609436 844.016235,545.173706 843.708191,544.738037 
	C839.667725,547.551758 835.627197,550.365540 830.991577,553.595886 
M322.359955,232.583939 
	C324.479279,230.561234 324.924164,227.997543 324.485748,225.280609 
	C324.196259,223.486603 323.072906,221.971695 321.088562,222.538528 
	C318.056915,223.404510 317.344574,226.042114 317.372742,228.840744 
	C317.400909,231.642136 318.175385,233.848740 322.359955,232.583939 
z"/>
<path fill="#409EFF" opacity="1.000000" stroke="none"
	d="
M557.967163,353.971588 
	C550.197510,360.863983 542.304443,366.969421 533.274963,371.447266 
	C530.442810,372.851746 527.552063,374.210419 524.301636,374.286102 
	C522.672119,374.324066 520.688110,374.657166 519.942810,372.711456 
	C519.141846,370.620483 521.032227,369.788727 522.396606,368.931915 
	C524.933899,367.338409 527.570862,365.904602 530.128723,364.342682 
	C554.895508,349.219421 572.351624,327.442871 586.116882,302.409149 
	C602.366333,272.857758 611.481628,241.044235 615.858765,207.720703 
	C617.203613,197.482315 617.635803,187.183411 618.725403,176.935471 
	C618.881531,175.467178 619.064514,173.877045 619.741821,172.615341 
	C621.072205,170.137024 623.112915,169.701248 624.779480,172.210739 
	C636.392700,189.696899 651.251648,204.765884 662.001831,222.925308 
	C679.056702,251.734726 689.946167,282.414703 692.516968,315.976074 
	C693.475830,328.494171 693.806641,340.890625 691.409302,353.257385 
	C691.223450,354.216095 690.891357,355.154205 690.538208,356.067413 
	C690.444885,356.308807 690.019287,356.421692 689.463928,356.771301 
	C687.116638,355.232269 687.907837,352.734375 687.850464,350.621552 
	C686.966797,318.066132 681.764893,286.404541 668.750366,256.296204 
	C658.610474,232.838165 644.515442,211.909622 628.256348,192.340958 
	C627.640930,191.600311 626.861938,190.995605 625.605225,189.800903 
	C624.462158,200.107544 623.557861,209.793243 622.289368,219.431030 
	C617.008728,259.555206 603.848450,296.670868 579.921143,329.644684 
	C573.536987,338.442596 566.373413,346.521362 557.967163,353.971588 
z"/>
<path fill="#409EFF" opacity="1.000000" stroke="none"
	d="
M642.248413,151.103882 
	C638.684021,154.076218 641.395935,155.689453 643.281616,157.134079 
	C649.019836,161.530197 655.685913,164.239746 662.223389,167.163666 
	C683.517090,176.687393 704.767395,186.307846 724.542480,198.809143 
	C750.787537,215.400543 773.241028,235.941071 790.046570,262.278290 
	C791.221558,264.119690 793.048218,265.834534 792.622559,268.702301 
	C789.450012,268.426422 788.292664,265.961823 786.741089,264.233307 
	C766.386047,241.556320 744.129944,221.110550 717.982666,205.180664 
	C699.020630,193.628220 679.147461,183.891129 658.728088,175.216919 
	C651.680786,172.223160 644.572388,169.286926 638.474243,164.491074 
	C629.136108,157.147125 629.716309,149.168808 640.147644,143.277847 
	C650.350281,137.516022 661.775574,135.698639 673.087280,133.798950 
	C696.870361,129.804886 720.852600,129.362000 744.765137,131.863785 
	C770.872681,134.595230 796.384277,140.061188 819.788086,152.756378 
	C821.392883,153.626907 823.602539,153.984985 824.084961,156.467300 
	C821.974487,157.224167 820.346863,156.149216 818.678467,155.650742 
	C794.555115,148.443100 770.111633,142.672974 744.977478,140.559525 
	C723.536499,138.756607 702.093811,139.207916 680.697144,141.847305 
	C672.264160,142.887543 663.913574,144.246964 655.637878,146.120285 
	C651.071289,147.153992 646.686829,148.709595 642.248413,151.103882 
z"/>
<path fill="#409EFF" opacity="1.000000" stroke="none"
	d="
M441.299072,199.727814 
	C451.833252,215.190155 453.621002,231.740906 449.163879,249.197128 
	C448.399536,252.190750 446.933075,255.005096 445.840057,257.777618 
	C448.503632,260.103607 452.965118,256.777649 454.981476,262.034180 
	C440.259918,263.533508 426.839691,268.546844 413.325531,273.807617 
	C412.677795,270.249725 415.663666,269.802917 416.013123,267.276520 
	C415.948822,266.080902 414.437317,265.386047 413.425995,264.371643 
	C401.822357,252.732880 401.661743,232.731750 413.108429,220.960266 
	C419.486633,214.401047 427.122162,212.938004 435.457031,216.679367 
	C436.504120,217.149414 437.548523,217.625412 438.551849,218.079468 
	C439.978058,216.845230 438.945190,215.757797 438.549011,214.857498 
	C431.760284,199.429764 414.828918,195.997879 402.464935,207.530746 
	C389.432312,219.687286 383.787476,248.295898 394.955444,263.310913 
	C395.524445,264.075836 395.906769,264.979614 396.637665,266.286743 
	C393.803467,266.431488 392.630585,264.693329 391.436462,263.315216 
	C384.373566,255.164352 381.763062,245.551605 382.890930,234.987030 
	C384.036072,224.259964 387.062073,214.108154 393.592133,205.279449 
	C405.299011,189.451721 420.697845,186.560822 437.253174,197.059769 
	C438.519348,197.862717 439.785400,198.665909 441.299072,199.727814 
M421.399231,226.120102 
	C418.580261,227.868332 417.717316,230.203674 419.322388,233.228409 
	C420.243530,234.964325 421.598083,236.148376 423.690918,235.642700 
	C426.058929,235.070511 427.366180,233.216492 427.493683,230.993546 
	C427.702026,227.362595 425.756775,225.538071 421.399231,226.120102 
z"/>
<path fill="#409EFF" opacity="1.000000" stroke="none"
	d="
M329.526672,291.564026 
	C327.097351,293.630035 325.031952,293.938019 323.440521,291.229034 
	C322.017426,288.806549 320.337311,289.280365 318.434723,290.472687 
	C314.594452,292.879272 311.452148,296.047913 308.416168,299.369476 
	C307.131134,300.775391 305.748322,302.753174 303.413177,301.411194 
	C301.316284,300.206207 301.307495,297.969727 302.022156,296.081238 
	C305.238708,287.581696 309.987427,280.343933 319.192566,277.350220 
	C323.398804,275.982269 327.599762,276.187958 330.575287,279.891724 
	C333.657471,283.728271 332.564972,287.647949 329.526672,291.564026 
z"/>
<path fill="#409EFF" opacity="1.000000" stroke="none"
	d="
M438.280762,170.821960 
	C438.883057,171.650467 439.300110,172.172302 439.636658,172.741699 
	C441.081787,175.186676 443.040649,178.005005 440.231873,180.309662 
	C437.525635,182.530228 435.780243,179.304977 434.040405,177.868286 
	C427.210144,172.228104 419.658875,169.136673 410.633118,170.196457 
	C408.441772,170.453766 405.643555,171.110397 404.739624,168.044174 
	C403.814148,164.904861 406.000885,163.132751 408.327087,161.651840 
	C415.310974,157.205765 424.675781,157.994522 431.455688,163.784775 
	C433.839905,165.820969 435.867859,168.274292 438.280762,170.821960 
z"/>
<path fill="#409EFF" opacity="1.000000" stroke="none"
	d="
M307.365723,184.631531 
	C303.133942,185.191727 303.039520,182.661606 303.585602,179.999313 
	C305.592468,170.215012 319.599396,162.009628 329.175018,165.044189 
	C332.382050,166.060532 335.126556,168.147995 334.628021,171.838486 
	C334.162994,175.280884 330.885925,175.290390 328.237976,175.094437 
	C319.626678,174.457245 313.210724,178.425110 307.365723,184.631531 
z"/>
<path fill="#409EFF" opacity="1.000000" stroke="none"
	d="
M259.742554,281.092285 
	C260.339203,276.932098 262.087097,273.811218 266.043854,273.353302 
	C270.327484,272.857544 273.150330,275.543854 274.912628,279.262451 
	C277.339020,284.382385 278.203308,289.672821 276.104034,295.126404 
	C275.457306,296.806488 274.722870,298.791870 272.378174,298.402252 
	C270.339874,298.063507 270.208069,296.129211 269.956390,294.508820 
	C269.678345,292.718658 269.762512,290.841461 269.264069,289.125580 
	C268.826172,287.618225 268.004456,285.486389 265.927582,286.300140 
	C260.884644,288.275970 260.285706,285.029999 259.742554,281.092285 
z"/>
<path fill="#409EFF" opacity="1.000000" stroke="none"
	d="
M363.395752,218.655121 
	C358.922821,214.787277 358.750702,209.856842 359.259949,204.806381 
	C359.436798,203.052338 360.482208,201.595261 362.445343,201.558136 
	C364.224060,201.524506 365.303284,202.992035 365.380463,204.442947 
	C365.637848,209.281860 368.252411,214.468262 363.395752,218.655121 
z"/>
<path fill="#409EFF" opacity="1.000000" stroke="none"
	d="
M244.618927,131.212494 
	C260.375854,137.871902 275.040649,145.446167 286.768646,158.583725 
	C282.529175,161.336044 280.566040,158.820724 278.589203,157.504654 
	C262.928497,147.078430 246.093155,139.398346 227.700943,135.230835 
	C212.126251,131.701752 196.463440,131.072693 180.687988,133.668121 
	C179.545547,133.856079 178.391357,134.078506 177.241211,134.086746 
	C175.834915,134.096848 174.589828,133.568573 174.105713,132.103348 
	C173.599030,130.569733 174.521042,129.558975 175.637802,128.744400 
	C177.976074,127.038849 180.714783,126.290085 183.481354,125.695221 
	C204.289368,121.221085 224.436813,124.303047 244.618927,131.212494 
z"/>
</svg>
