<svg xmlns="http://www.w3.org/2000/svg" xmlns:xlink="http://www.w3.org/1999/xlink" version="1.0" x="0" y="0" width="2400" height="2388.096294689514" viewBox="145.16190494537352 100.28513492584229 49.67612525939941 49.42973777770996" preserveAspectRatio="xMidYMid meet" color-interpolation-filters="sRGB"><g><defs><linearGradient id="92" x1="0%" y1="0%" x2="100%" y2="0%"><stop offset="0%" stop-color="#fa71cd"></stop> <stop offset="100%" stop-color="#9b59b6"></stop></linearGradient><linearGradient id="93" x1="0%" y1="0%" x2="100%" y2="0%"><stop offset="0%" stop-color="#f9d423"></stop> <stop offset="100%" stop-color="#f83600"></stop></linearGradient><linearGradient id="94" x1="0%" y1="0%" x2="100%" y2="0%"><stop offset="0%" stop-color="#0064d2"></stop> <stop offset="100%" stop-color="#1cb0f6"></stop></linearGradient><linearGradient id="95" x1="0%" y1="0%" x2="100%" y2="0%"><stop offset="0%" stop-color="#f00978"></stop> <stop offset="100%" stop-color="#3f51b1"></stop></linearGradient><linearGradient id="96" x1="0%" y1="0%" x2="100%" y2="0%"><stop offset="0%" stop-color="#7873f5"></stop> <stop offset="100%" stop-color="#ec77ab"></stop></linearGradient><linearGradient id="97" x1="0%" y1="0%" x2="100%" y2="0%"><stop offset="0%" stop-color="#f9d423"></stop> <stop offset="100%" stop-color="#e14fad"></stop></linearGradient><linearGradient id="98" x1="0%" y1="0%" x2="100%" y2="0%"><stop offset="0%" stop-color="#009efd"></stop> <stop offset="100%" stop-color="#2af598"></stop></linearGradient><linearGradient id="99" x1="0%" y1="0%" x2="100%" y2="0%"><stop offset="0%" stop-color="#ffcc00"></stop> <stop offset="100%" stop-color="#00b140"></stop></linearGradient><linearGradient id="100" x1="0%" y1="0%" x2="100%" y2="0%"><stop offset="0%" stop-color="#d51007"></stop> <stop offset="100%" stop-color="#ff8177"></stop></linearGradient><linearGradient id="102" x1="0%" y1="0%" x2="100%" y2="0%"><stop offset="0%" stop-color="#a2b6df"></stop> <stop offset="100%" stop-color="#0c3483"></stop></linearGradient><linearGradient id="103" x1="0%" y1="0%" x2="100%" y2="0%"><stop offset="0%" stop-color="#7ac5d8"></stop> <stop offset="100%" stop-color="#eea2a2"></stop></linearGradient><linearGradient id="104" x1="0%" y1="0%" x2="100%" y2="0%"><stop offset="0%" stop-color="#00ecbc"></stop> <stop offset="100%" stop-color="#007adf"></stop></linearGradient><linearGradient id="105" x1="0%" y1="0%" x2="100%" y2="0%"><stop offset="0%" stop-color="#b88746"></stop> <stop offset="100%" stop-color="#fdf5a6"></stop></linearGradient></defs><g class="imagesvg isNoFont" transform="translate(151.6489315032959,106.77215194702148)"><g mask="url(#8ac09ac7-0329-43d7-a684-fc7706dc6a14)"><rect fill="#ffffff" fill-opacity="0" stroke-width="2" x="0" y="0" width="36.702136708860756" height="36.45569620253164" class="image-rect"></rect> <svg x="0" y="0" width="36.702136708860756" height="36.45569620253164" filtersec="colorsf3570058809" class="image-svg-svg primary" style="overflow: visible;"><svg xmlns="http://www.w3.org/2000/svg" viewBox="9.3443021774292 10.999979019165039 493.3077087402344 489.9960021972656" x="0px" y="0px"><path d="M219.269,452.785l-1.209,12.863,3.328,1.469,1.878-6.061A80.854,80.854,0,0,1,219.269,452.785Z"></path><path d="M246.769,476.236a86.335,86.335,0,0,0,32.048,19.482c-21.575-17.026-33.574-41.482-39.834-58.945l-1.831,11.8a4.755,4.755,0,0,1-4.81,4.011l-2.8-.076A83.46,83.46,0,0,0,246.769,476.236Z"></path><path d="M106.258,190.56c18.435,31.385,26.6,57.829,27.645,61.35q3.957,1.121,7.567,2.262c-2.819-8.552-9.84-29.457-14.9-41.159a4.738,4.738,0,1,1,8.7-3.759c6.613,15.3,16.065,44.582,16.464,45.822a4.706,4.706,0,0,1,.073,2.6,166.32,166.32,0,0,1,25.282,11.352c2.3-.413,6.552-1.087,12.076-1.573-10.992-30.315,1.347-55.015,7.432-64.557-35.217-24.78-48.343-55.893-53.122-78a125.034,125.034,0,0,1-2.256-39.521C101.7,78.931,76.168,65.351,65.31,44.985A49.287,49.287,0,0,1,60.944,11C41.431,17.741,27.25,28.616,18.723,43.4c-12.948,22.455-9.2,47.639-7.712,54.952C37.38,110.7,74.583,136.633,106.258,190.56ZM49.692,53.061C33.151,69.57,41.767,92.507,41.855,92.737a4.738,4.738,0,1,1-8.837,3.421c-.454-1.173-10.887-28.979,9.98-49.8a4.738,4.738,0,0,1,6.694,6.708ZM56.38,96.07A4.737,4.737,0,0,1,59.208,90c29.439-10.729,66.157,8.476,67.705,9.3a4.738,4.738,0,1,1-4.446,8.369c-.5-.263-34.623-18.017-60.013-8.763A4.738,4.738,0,0,1,56.38,96.07Z"></path><path d="M192.684,371.152c-2.49-1.737-5.527-3.828-9.1-6.191l-11.243,32.452a6.583,6.583,0,0,0,1.06,6.266l8,10.13a6.578,6.578,0,0,0,5.193,2.516,16.053,16.053,0,0,1,14.848,9.889l.563,1.348,4.956-.763a12.439,12.439,0,0,0-6.9-7.476l-.384-.164a22.015,22.015,0,0,1-13.115-17.367L185.129,390.6A21.961,21.961,0,0,1,192.684,371.152Z"></path><path d="M412.443,114.261c-31.635-2.472-61.235,1.839-70.827,3.465-4.033,22.454-21.573,60.927-79.663,120.864-3.149,3.248-6.339,9.471-9.425,15.488-6.567,12.8-14.009,27.319-26.791,24.582-23.979-5.131-48.287-.051-48.532,0a4.734,4.734,0,0,1-3.534-.636c-.181-.115-19.088-11.906-55.18-20.3a81.2,81.2,0,0,0-22.29-2.193,97.319,97.319,0,0,1-5.862,13.855,4.739,4.739,0,0,1-8.229-4.7c2.526-4.418,5.942-14.28,8.279-21.594-19.8,4.618-20.157,29.773-20.163,30.947a4.742,4.742,0,0,1-4.738,4.724h-.01a4.734,4.734,0,0,1-4.728-4.733,55.975,55.975,0,0,1,4.332-20.084,35.98,35.98,0,0,1,10.154-13.867,71.073,71.073,0,0,0,.113-15.436c-19.9,17.71-22.946,56.18-23.068,57.869l-1.2,32.043a1.374,1.374,0,0,0,1.134,1.388l10.875,1.977,6.864-10.788a4.741,4.741,0,0,1,2.337-1.893c.14-.053,13.043-5.107,18.237-16.741-3.621.45-5.764.946-5.86.969a4.738,4.738,0,0,1-2.249-9.206c2.04-.5,50.361-11.824,86.733,23.952a4.738,4.738,0,0,1-6.645,6.757,78.384,78.384,0,0,0-8.109-6.959c3.432,14.929,11.453,38.3,29.249,49.685,7.488,4.793,13.256,8.839,17.072,11.517l1.648,1.154c.071-.015.137-.038.208-.053l18.055-3.61a21.948,21.948,0,0,1,19.378,5.582l11.482,10.878a4.738,4.738,0,1,1-6.517,6.879l-11.482-10.878a12.464,12.464,0,0,0-11-3.169L204.436,375.6a12.49,12.49,0,0,0-9.906,13.79l1.435,11.194a12.5,12.5,0,0,0,7.444,9.859l.382.164a21.9,21.9,0,0,1,13.294,20.154,4.738,4.738,0,0,1-4.017,4.683l-12.153,1.87a9.836,9.836,0,0,0-8.385,9.773v9.69l3.22.885.069-.282a19.459,19.459,0,0,1,19.326-14.738l13.281.356,6.414-41.339a4.739,4.739,0,0,1,9.366,1.453l-1.761,11.35c1.36,6.567,12.562,55.341,49.065,78.674,3.368,1.559,47.342,20.989,81.694-7.766.094-.077.189-.151.288-.222L390.2,473.219l5.6-5.374a43.088,43.088,0,0,0,13.273-29.222l.564-12.158-10.045,9.14a43.184,43.184,0,0,0-13.95,27.85l-.771,8a4.739,4.739,0,0,1-1.128,2.639c-23.352,27.087-65.542,18.48-67.326,18.1-36.971-8.531-41.169-48.234-41.207-48.634a4.617,4.617,0,0,1-.022-.5c.8-77.031-16.091-93.582-17.211-94.589a4.414,4.414,0,0,1-2.015-3.068,4.63,4.63,0,0,1,1.054-3.693c14.742-18.9,37.347-30,65.371-32.1a139.582,139.582,0,0,1,33.083,1.548c9.555-47.178,33.592-70.7,52.391-82.18a97.066,97.066,0,0,1,36.718-13.391c1.787-18.741,8.585-32.937,20.238-42.238,12.905-10.3,28.5-11.943,37.835-11.816C489.223,133.784,458.923,117.894,412.443,114.261ZM60.831,300.079a5.265,5.265,0,1,1,5.265-5.265A5.271,5.271,0,0,1,60.831,300.079Zm287.953-3.771a4.739,4.739,0,0,1-9-2.986c.16-.48,15.71-48.391.165-83.538a4.738,4.738,0,1,1,8.666-3.833C365.663,244.481,349.481,294.21,348.784,296.308Zm9.784-165.625c-2.812,21.869-19.008,61.189-80.2,124.324a4.738,4.738,0,1,1-6.805-6.595c26.831-27.684,72.591-79.947,77.6-118.937a4.738,4.738,0,1,1,9.4,1.208Zm73.71,80.688a4.736,4.736,0,0,1-5.71-3.5c-.437-1.785-11.095-42.995-61.055-51.237a4.739,4.739,0,1,1,1.542-9.351c29.385,4.848,46.492,20.381,55.667,32.558,9.965,13.224,12.938,25.305,13.059,25.813A4.738,4.738,0,0,1,432.278,211.371Z"></path><path d="M393.388,319.771a169.857,169.857,0,0,0-7.225,27.729,4.738,4.738,0,0,0,3.845,5.488,4.853,4.853,0,0,0,.826.072,4.739,4.739,0,0,0,4.661-3.918,160.45,160.45,0,0,1,6.815-26.178,4.738,4.738,0,1,0-8.922-3.193Z"></path><path d="M419.05,291.591a4.738,4.738,0,1,0-7.523-5.761c-1.563,2.04-3.088,4.184-4.532,6.371a4.738,4.738,0,1,0,7.907,5.223C416.225,295.419,417.622,293.458,419.05,291.591Z"></path><path d="M480.423,246.76a79.843,79.843,0,0,0-20.03,4.129,100.233,100.233,0,0,0-34.438,19.557,4.738,4.738,0,1,0,6.213,7.155,90.8,90.8,0,0,1,31.181-17.708,72.127,72.127,0,0,1,17.434-3.663,4.738,4.738,0,0,0-.36-9.47Z"></path><path d="M232.216,195.116a4.738,4.738,0,1,0,5.211-7.915A130.042,130.042,0,0,1,204.1,156.163a4.739,4.739,0,0,0-7.62,5.636A139.506,139.506,0,0,0,232.216,195.116Z"></path><path d="M178.924,110a4.74,4.74,0,0,0-3.572,5.671,124.511,124.511,0,0,0,8.564,25.048,4.738,4.738,0,1,0,8.586-4.011,114.858,114.858,0,0,1-7.907-23.137A4.74,4.74,0,0,0,178.924,110Z"></path><path d="M176.8,87.8c.058,0,.115,0,.173,0a4.738,4.738,0,0,0,4.732-4.569,79.9,79.9,0,0,1,1.109-11.411,4.739,4.739,0,0,0-9.291-1.873,87.363,87.363,0,0,0-1.288,12.945A4.738,4.738,0,0,0,176.8,87.8Z"></path></svg><rect v-gra="id" width="48.702083587646484" height="48.45569610595703" transform="translate(-6, -6)" style="pointer-events:none;" fill="url(#s_VDwJbQZ24byJOozal5p)"></rect></svg> <defs><filter id="colors2418341556"><feColorMatrix type="matrix" values="0 0 0 0 0  0 0 0 0 0  0 0 0 0 0  0 0 0 1 0" class="icon-feColorMatrix "></feColorMatrix></filter> <filter id="colorsf3570058809"><feColorMatrix type="matrix" values="0 0 0 0 0.99609375  0 0 0 0 0.99609375  0 0 0 0 0.99609375  0 0 0 1 0" class="icon-fecolormatrix"></feColorMatrix></filter> <filter id="colorsb1787431695"><feColorMatrix type="matrix" values="0 0 0 0 0  0 0 0 0 0  0 0 0 0 0  0 0 0 1 0" class="icon-fecolormatrix"></feColorMatrix></filter></defs></g></g><defs v-gra="od"></defs><defs v-gra="id"><filter id="942cddcd-c223-445c-82a6-830f50160041" filterUnits="userSpaceOnUse"><feColorMatrix type="matrix" values="0 0 0 0 0.99609375  0 0 0 0 0.99609375  0 0 0 0 0.99609375  0 0 0 1 0"></feColorMatrix></filter><linearGradient x1="0" y1="1" x2="0" y2="0" id="s_VDwJbQZ24byJOozal5p"><stop offset="0%" stop-color="#4158d0"></stop><stop offset="50%" stop-color="#c850c0"></stop><stop offset="100%" stop-color="#ffcc70"></stop></linearGradient><filter id="42443b3f1de60f6b6fd3b6a9844b4764" filterUnits="objectBoundingBox"><feColorMatrix type="matrix" values="0 0 0 0 0.99609375  0 0 0 0 0.99609375  0 0 0 0 0.99609375  0 0 0 1 0"></feColorMatrix></filter></defs><mask v-gra="im" id="8ac09ac7-0329-43d7-a684-fc7706dc6a14"><svg filter="url(#942cddcd-c223-445c-82a6-830f50160041)" x="0" y="0" width="36.702136708860756" height="36.45569620253164" filtersec="colorsf3570058809" class="image-svg-svg primary" style="overflow: visible;"><svg xmlns="http://www.w3.org/2000/svg" viewBox="9.3443021774292 10.999979019165039 493.3077087402344 489.9960021972656" x="0px" y="0px"><path d="M219.269,452.785l-1.209,12.863,3.328,1.469,1.878-6.061A80.854,80.854,0,0,1,219.269,452.785Z"></path><path d="M246.769,476.236a86.335,86.335,0,0,0,32.048,19.482c-21.575-17.026-33.574-41.482-39.834-58.945l-1.831,11.8a4.755,4.755,0,0,1-4.81,4.011l-2.8-.076A83.46,83.46,0,0,0,246.769,476.236Z"></path><path d="M106.258,190.56c18.435,31.385,26.6,57.829,27.645,61.35q3.957,1.121,7.567,2.262c-2.819-8.552-9.84-29.457-14.9-41.159a4.738,4.738,0,1,1,8.7-3.759c6.613,15.3,16.065,44.582,16.464,45.822a4.706,4.706,0,0,1,.073,2.6,166.32,166.32,0,0,1,25.282,11.352c2.3-.413,6.552-1.087,12.076-1.573-10.992-30.315,1.347-55.015,7.432-64.557-35.217-24.78-48.343-55.893-53.122-78a125.034,125.034,0,0,1-2.256-39.521C101.7,78.931,76.168,65.351,65.31,44.985A49.287,49.287,0,0,1,60.944,11C41.431,17.741,27.25,28.616,18.723,43.4c-12.948,22.455-9.2,47.639-7.712,54.952C37.38,110.7,74.583,136.633,106.258,190.56ZM49.692,53.061C33.151,69.57,41.767,92.507,41.855,92.737a4.738,4.738,0,1,1-8.837,3.421c-.454-1.173-10.887-28.979,9.98-49.8a4.738,4.738,0,0,1,6.694,6.708ZM56.38,96.07A4.737,4.737,0,0,1,59.208,90c29.439-10.729,66.157,8.476,67.705,9.3a4.738,4.738,0,1,1-4.446,8.369c-.5-.263-34.623-18.017-60.013-8.763A4.738,4.738,0,0,1,56.38,96.07Z"></path><path d="M192.684,371.152c-2.49-1.737-5.527-3.828-9.1-6.191l-11.243,32.452a6.583,6.583,0,0,0,1.06,6.266l8,10.13a6.578,6.578,0,0,0,5.193,2.516,16.053,16.053,0,0,1,14.848,9.889l.563,1.348,4.956-.763a12.439,12.439,0,0,0-6.9-7.476l-.384-.164a22.015,22.015,0,0,1-13.115-17.367L185.129,390.6A21.961,21.961,0,0,1,192.684,371.152Z"></path><path d="M412.443,114.261c-31.635-2.472-61.235,1.839-70.827,3.465-4.033,22.454-21.573,60.927-79.663,120.864-3.149,3.248-6.339,9.471-9.425,15.488-6.567,12.8-14.009,27.319-26.791,24.582-23.979-5.131-48.287-.051-48.532,0a4.734,4.734,0,0,1-3.534-.636c-.181-.115-19.088-11.906-55.18-20.3a81.2,81.2,0,0,0-22.29-2.193,97.319,97.319,0,0,1-5.862,13.855,4.739,4.739,0,0,1-8.229-4.7c2.526-4.418,5.942-14.28,8.279-21.594-19.8,4.618-20.157,29.773-20.163,30.947a4.742,4.742,0,0,1-4.738,4.724h-.01a4.734,4.734,0,0,1-4.728-4.733,55.975,55.975,0,0,1,4.332-20.084,35.98,35.98,0,0,1,10.154-13.867,71.073,71.073,0,0,0,.113-15.436c-19.9,17.71-22.946,56.18-23.068,57.869l-1.2,32.043a1.374,1.374,0,0,0,1.134,1.388l10.875,1.977,6.864-10.788a4.741,4.741,0,0,1,2.337-1.893c.14-.053,13.043-5.107,18.237-16.741-3.621.45-5.764.946-5.86.969a4.738,4.738,0,0,1-2.249-9.206c2.04-.5,50.361-11.824,86.733,23.952a4.738,4.738,0,0,1-6.645,6.757,78.384,78.384,0,0,0-8.109-6.959c3.432,14.929,11.453,38.3,29.249,49.685,7.488,4.793,13.256,8.839,17.072,11.517l1.648,1.154c.071-.015.137-.038.208-.053l18.055-3.61a21.948,21.948,0,0,1,19.378,5.582l11.482,10.878a4.738,4.738,0,1,1-6.517,6.879l-11.482-10.878a12.464,12.464,0,0,0-11-3.169L204.436,375.6a12.49,12.49,0,0,0-9.906,13.79l1.435,11.194a12.5,12.5,0,0,0,7.444,9.859l.382.164a21.9,21.9,0,0,1,13.294,20.154,4.738,4.738,0,0,1-4.017,4.683l-12.153,1.87a9.836,9.836,0,0,0-8.385,9.773v9.69l3.22.885.069-.282a19.459,19.459,0,0,1,19.326-14.738l13.281.356,6.414-41.339a4.739,4.739,0,0,1,9.366,1.453l-1.761,11.35c1.36,6.567,12.562,55.341,49.065,78.674,3.368,1.559,47.342,20.989,81.694-7.766.094-.077.189-.151.288-.222L390.2,473.219l5.6-5.374a43.088,43.088,0,0,0,13.273-29.222l.564-12.158-10.045,9.14a43.184,43.184,0,0,0-13.95,27.85l-.771,8a4.739,4.739,0,0,1-1.128,2.639c-23.352,27.087-65.542,18.48-67.326,18.1-36.971-8.531-41.169-48.234-41.207-48.634a4.617,4.617,0,0,1-.022-.5c.8-77.031-16.091-93.582-17.211-94.589a4.414,4.414,0,0,1-2.015-3.068,4.63,4.63,0,0,1,1.054-3.693c14.742-18.9,37.347-30,65.371-32.1a139.582,139.582,0,0,1,33.083,1.548c9.555-47.178,33.592-70.7,52.391-82.18a97.066,97.066,0,0,1,36.718-13.391c1.787-18.741,8.585-32.937,20.238-42.238,12.905-10.3,28.5-11.943,37.835-11.816C489.223,133.784,458.923,117.894,412.443,114.261ZM60.831,300.079a5.265,5.265,0,1,1,5.265-5.265A5.271,5.271,0,0,1,60.831,300.079Zm287.953-3.771a4.739,4.739,0,0,1-9-2.986c.16-.48,15.71-48.391.165-83.538a4.738,4.738,0,1,1,8.666-3.833C365.663,244.481,349.481,294.21,348.784,296.308Zm9.784-165.625c-2.812,21.869-19.008,61.189-80.2,124.324a4.738,4.738,0,1,1-6.805-6.595c26.831-27.684,72.591-79.947,77.6-118.937a4.738,4.738,0,1,1,9.4,1.208Zm73.71,80.688a4.736,4.736,0,0,1-5.71-3.5c-.437-1.785-11.095-42.995-61.055-51.237a4.739,4.739,0,1,1,1.542-9.351c29.385,4.848,46.492,20.381,55.667,32.558,9.965,13.224,12.938,25.305,13.059,25.813A4.738,4.738,0,0,1,432.278,211.371Z"></path><path d="M393.388,319.771a169.857,169.857,0,0,0-7.225,27.729,4.738,4.738,0,0,0,3.845,5.488,4.853,4.853,0,0,0,.826.072,4.739,4.739,0,0,0,4.661-3.918,160.45,160.45,0,0,1,6.815-26.178,4.738,4.738,0,1,0-8.922-3.193Z"></path><path d="M419.05,291.591a4.738,4.738,0,1,0-7.523-5.761c-1.563,2.04-3.088,4.184-4.532,6.371a4.738,4.738,0,1,0,7.907,5.223C416.225,295.419,417.622,293.458,419.05,291.591Z"></path><path d="M480.423,246.76a79.843,79.843,0,0,0-20.03,4.129,100.233,100.233,0,0,0-34.438,19.557,4.738,4.738,0,1,0,6.213,7.155,90.8,90.8,0,0,1,31.181-17.708,72.127,72.127,0,0,1,17.434-3.663,4.738,4.738,0,0,0-.36-9.47Z"></path><path d="M232.216,195.116a4.738,4.738,0,1,0,5.211-7.915A130.042,130.042,0,0,1,204.1,156.163a4.739,4.739,0,0,0-7.62,5.636A139.506,139.506,0,0,0,232.216,195.116Z"></path><path d="M178.924,110a4.74,4.74,0,0,0-3.572,5.671,124.511,124.511,0,0,0,8.564,25.048,4.738,4.738,0,1,0,8.586-4.011,114.858,114.858,0,0,1-7.907-23.137A4.74,4.74,0,0,0,178.924,110Z"></path><path d="M176.8,87.8c.058,0,.115,0,.173,0a4.738,4.738,0,0,0,4.732-4.569,79.9,79.9,0,0,1,1.109-11.411,4.739,4.739,0,0,0-9.291-1.873,87.363,87.363,0,0,0-1.288,12.945A4.738,4.738,0,0,0,176.8,87.8Z"></path></svg></svg></mask></g></svg>